<svg viewBox="0 0 600 480" xmlns="http://www.w3.org/2000/svg" role="img" aria-label="Custom uniforms and sportswear banner">
  <defs>
    <linearGradient id="panel" x1="0" y1="0" x2="1" y2="1">
      <stop offset="0" stop-color="#ffffff" stop-opacity="0.08"/>
      <stop offset="1" stop-color="#ffffff" stop-opacity="0.02"/>
    </linearGradient>
  </defs>
  <rect x="20" y="24" width="560" height="432" rx="20" fill="url(#panel)" stroke="#ffffff" stroke-opacity="0.12"/>
  <line x1="60" y1="70" x2="540" y2="70" stroke="#4c7fe1" stroke-opacity="0.5" stroke-width="2"/>

  <!-- Jersey (center) -->
  <g transform="translate(196,120) scale(1.25)" stroke="#182a3d" stroke-width="7" stroke-linejoin="round" stroke-linecap="round">
    <path d="M60 24 L28 44 L4 32 L-12 74 L28 96 L44 86 L44 210 Q44 220 54 220 L146 220 Q156 220 156 210 L156 86 L172 96 L212 74 L196 32 L172 44 L140 24 Q120 50 100 54 Q80 50 60 24 Z" fill="#ffffff"/>
  </g>
  <rect x="235" y="270" width="130" height="8" fill="#4c7fe1"/>
  <text x="300" y="360" font-family="Arial, Helvetica, sans-serif" font-size="96" font-weight="800" fill="#2b4562" text-anchor="middle">01</text>

  <!-- Coat (left) -->
  <g transform="translate(40,150) scale(0.8)" stroke="#182a3d" stroke-width="7" stroke-linejoin="round" stroke-linecap="round">
    <path d="M60 24 L28 44 L4 32 L-12 74 L28 96 L44 86 L44 210 Q44 220 54 220 L146 220 Q156 220 156 210 L156 86 L172 96 L212 74 L196 32 L172 44 L140 24 L100 60 Z" fill="#e9edf2"/>
    <path d="M100 60 L100 220" fill="none" stroke="#182a3d" stroke-width="5"/>
    <circle cx="100" cy="110" r="6" fill="#4c7fe1" stroke="none"/>
    <circle cx="100" cy="150" r="6" fill="#4c7fe1" stroke="none"/>
    <circle cx="100" cy="190" r="6" fill="#4c7fe1" stroke="none"/>
  </g>

  <!-- Cap (bottom right) -->
  <g transform="translate(408,300) scale(0.72)" stroke="#182a3d" stroke-width="7" stroke-linejoin="round" stroke-linecap="round">
    <path d="M78 120 Q78 40 160 40 Q242 40 242 120 L160 120 Z" fill="#33506f"/>
    <path d="M76 120 L286 140 Q296 144 292 154 Q290 160 280 160 L82 144 Q74 143 74 134 Z" fill="#22374f"/>
    <path d="M160 40 Q120 44 100 116" fill="none" stroke="#4c7fe1" stroke-width="6"/>
  </g>
</svg>
