<svg viewBox="0 0 320 320" xmlns="http://www.w3.org/2000/svg" role="img" aria-label="Sportswear jersey mockup">
  <g fill="#ffffff" stroke="#132f4c" stroke-width="8" stroke-linejoin="round" stroke-linecap="round">
    <path d="M110 66 L70 92 L38 76 L16 130 L70 160 L90 146 L90 252 Q90 264 102 264 L218 264 Q230 264 230 252 L230 146 L250 160 L304 130 L282 76 L250 92 L210 66 Q186 100 160 106 Q134 100 110 66 Z"/>
  </g>
  <path d="M132 74 Q160 104 188 74 L176 66 Q160 90 144 66 Z" fill="#132f4c"/>
  <rect x="90" y="150" width="140" height="9" fill="#b78a4a"/>
  <text x="160" y="232" font-family="Arial, Helvetica, sans-serif" font-size="86" font-weight="800" fill="#132f4c" text-anchor="middle">10</text>
</svg>
